/vscmnt/brussel_pixiu_data/_data_brussel/112/vsc11236/PredSimResults/SUBJ11mtu3D/worker1.mot
version=1
nRows=6
nColumns=50
inDegrees=yes
endheader
                time	         pelvis_tilt	         pelvis_list	     pelvis_rotation	           pelvis_tx	           pelvis_ty	           pelvis_tz	       hip_flexion_r	     hip_adduction_r	      hip_rotation_r	        knee_angle_r	       ankle_angle_r	         mtp_angle_r	       hip_flexion_l	     hip_adduction_l	      hip_rotation_l	        knee_angle_l	       ankle_angle_l	         mtp_angle_l	    lumbar_extension	      lumbar_bending	     lumbar_rotation	 ercspn_r/activation	 intobl_r/activation	 extobl_r/activation	    abd_r/activation	    add_r/activation	hamstrings_r/activation	bifemsh_r/activation	glut_max_r/activation	iliopsoas_r/activation	rect_fem_r/activation	  vasti_r/activation	gastroc_r/activation	 soleus_r/activation	tib_ant_r/activation	 ercspn_l/activation	 intobl_l/activation	 extobl_l/activation	    abd_l/activation	    add_l/activation	hamstrings_l/activation	bifemsh_l/activation	glut_max_l/activation	iliopsoas_l/activation	rect_fem_l/activation	  vasti_l/activation	gastroc_l/activation	 soleus_l/activation	tib_ant_l/activation	
          2.07314612	         -6.03835101	          4.60219913	         -8.07727996	          2.28046073	          0.93717221	          0.01635538	        -13.27030444	         -5.30780887	          3.39181242	         -8.62076973	         11.43900075	         29.60328950	         31.75771339	          1.04605718	         -4.22789646	         -4.97654308	          5.28233482	          0.23397617	         -4.44816075	         -3.31802901	          2.63449675	          0.05854864	          0.01000033	          0.01000101	          0.04267726	          0.01611703	          0.01917926	          0.11022252	          0.04245447	          0.42199366	          0.01000797	          0.01515405	          0.30099495	          0.24054887	          0.01000018	          0.08027156	          0.12085539	          0.02193488	          0.01353943	          0.10627258	          0.04433157	          0.22122197	          0.05037744	          0.07949793	          0.01000333	          0.01000061	          0.01634103	          0.01000038	          0.28656862	
          2.08696709	         -6.14218470	          4.49111658	         -8.07112387	          2.29917543	          0.93535060	          0.01562661	        -13.30765571	         -5.26278909	          2.97041059	        -10.39364298	         10.69724857	         31.77543039	         31.57826427	          1.11819810	         -4.26249704	         -6.38237563	          4.87024478	          0.19076473	         -4.12988072	         -3.63505999	          2.87187971	          0.07631642	          0.01000019	          0.01000096	          0.03468713	          0.01749056	          0.01559400	          0.08958651	          0.03450607	          0.40174297	          0.01000670	          0.02819093	          0.25459695	          0.21489976	          0.01000006	          0.06524394	          0.11483860	          0.01782821	          0.04032498	          0.08637647	          0.05287344	          0.17980485	          0.07769626	          0.06461413	          0.01000088	          0.01000024	          0.01532315	          0.01230421	          0.31824872	
          2.10078806	         -6.22290407	          4.37756094	         -8.01312935	          2.31806659	          0.93400324	          0.01479155	        -13.17183530	         -5.21133869	          2.52191829	        -12.49974620	          9.76291388	         33.95940387	         31.27261277	          1.19044128	         -4.31132777	         -7.61099130	          4.28183762	          0.18269185	         -3.82293879	         -3.95984131	          3.08209943	          0.11004870	          0.01000019	          0.01000071	          0.02819293	          0.01941991	          0.01891128	          0.07281404	          0.02804578	          0.38223229	          0.01513665	          0.02291322	          0.20693063	          0.17466576	          0.01000006	          0.07633609	          0.09333831	          0.01449041	          0.10737576	          0.11431894	          0.04890013	          0.14614180	          0.10101568	          0.05251692	          0.01000061	          0.01000015	          0.01245441	          0.01000066	          0.36079043	
          2.11460904	         -6.27939599	          4.25860110	         -7.90710320	          2.33684536	          0.93334053	          0.01386367	        -12.75519395	         -5.14707527	          2.05263060	        -15.09260445	          8.64393713	         36.03738164	         30.93989381	          1.27070837	         -4.36500456	         -8.80899057	          3.66547418	          0.13992107	         -3.55316688	         -4.28909192	          3.26153238	          0.14336648	          0.01000020	          0.01000064	          0.02291458	          0.04421848	          0.01537579	          0.05918184	          0.02279499	          0.35811511	          0.01230364	          0.01862339	          0.16818850	          0.14196437	          0.01000007	          0.08418607	          0.07586333	          0.01177755	          0.14587479	          0.14881778	          0.04366595	          0.11878102	          0.12349689	          0.04268458	          0.01000103	          0.02985088	          0.01012376	          0.01000601	          0.39016081	
          2.12843001	         -6.30981837	          4.12994723	         -7.75573978	          2.35538158	          0.93343645	          0.01287145	        -11.99093745	         -5.06680475	          1.55921588	        -18.26484821	          7.34857729	         37.82234021	         30.57575522	          1.35489119	         -4.41617543	        -10.02217339	          3.27671473	          0.10450667	         -3.32545374	         -4.61745379	          3.40562285	          0.15763946	          0.01000023	          0.01000071	          0.01862446	          0.06197252	          0.01862629	          0.04810228	          0.01852726	          0.31753717	          0.01000093	          0.01513669	          0.13669977	          0.11538541	          0.01000015	          0.08262353	          0.06166006	          0.01000023	          0.15773130	          0.14802472	          0.04344732	          0.09654284	          0.12219213	          0.03469308	          0.01000079	          0.06820700	          0.01000084	          0.01000071	          0.40760253	
          2.14225099	         -6.31509396	          3.98127640	         -7.56144481	          2.37361323	          0.93428165	          0.01184330	        -10.87073241	         -4.96891682	          1.03322863	        -22.00686716	          5.92883684	         38.96468241	         30.12092580	          1.43421445	         -4.44976777	        -11.12637886	          3.04677910	          0.07751515	         -3.14003260	         -4.93265162	          3.51207482	          0.16028262	          0.01000029	          0.01000079	          0.01513755	          0.07207276	          0.01514146	          0.03909968	          0.01505855	          0.26794249	          0.01000041	          0.01230278	          0.11110646	          0.09378264	          0.01000018	          0.07220123	          0.05011597	          0.01000032	          0.15354418	          0.12031146	          0.04518339	          0.07846818	          0.11706752	          0.02819777	          0.01000066	          0.11520242	          0.01000192	          0.01000149	          0.40559658	
